# Blender 4.2.2 LTS
# www.blender.org
mtllib door.mtl
o door
v -1.010320 0.032471 -0.100000
v 0.989680 0.032471 -0.100000
v -1.010320 0.032471 0.100000
v 0.989680 0.032471 0.100000
v -1.010320 4.032471 0.100000
v 0.989680 4.032471 0.100000
v -1.010320 4.032471 -0.100000
v 0.989680 4.032471 -0.100000
v 0.940738 4.341488 -0.100000
v 0.798698 4.620256 -0.100000
v 0.577466 4.841488 -0.100000
v 0.298698 4.983528 -0.100000
v -0.010320 5.032471 -0.100000
v -0.319337 4.983528 -0.100000
v -0.598105 4.841488 -0.100000
v -0.819337 4.620256 -0.100000
v -0.961376 4.341488 -0.100000
v -1.010320 4.032471 -0.100000
v 0.989680 4.032471 -0.100000
v 0.940738 4.341488 0.100000
v 0.798698 4.620256 0.100000
v 0.577466 4.841488 0.100000
v 0.298698 4.983528 0.100000
v -0.010320 5.032471 0.100000
v -0.319337 4.983528 0.100000
v -0.598105 4.841488 0.100000
v -0.819337 4.620256 0.100000
v -0.961376 4.341488 0.100000
v -1.010320 4.032471 0.100000
v 0.989680 4.032471 0.100000
v -0.010320 4.032471 -0.100000
v -0.010320 4.032471 0.100000
v -0.731338 4.032471 0.100000
v -0.695598 4.255131 0.100000
v -0.454747 4.176874 0.100000
v -0.724975 4.032471 0.100000
v -0.470459 4.032471 0.100000
v -0.582660 4.448300 0.100000
v -0.403259 4.317958 0.100000
v -0.402120 4.317130 0.100000
v -0.684378 4.251485 0.100000
v -0.422656 4.600004 0.100000
v -0.288745 4.415691 0.100000
v -0.214001 4.659338 0.100000
v -0.151217 4.466109 0.100000
v -0.010320 4.675728 0.100000
v -0.010320 4.478478 0.100000
v 0.186153 4.637150 0.100000
v 0.125286 4.449821 0.100000
v 0.122761 4.442051 0.100000
v 0.373680 4.561000 0.100000
v 0.254070 4.396372 0.100000
v 0.524185 4.420811 0.100000
v 0.372797 4.310821 0.100000
v 0.589458 4.227350 0.100000
v 0.589312 4.227303 0.100000
v 0.418524 4.171811 0.100000
v 0.598507 4.032471 0.100000
v 0.394894 4.032471 0.100000
v 0.382168 4.032471 0.100000
v 0.394383 4.032471 -0.100000
v 0.611968 4.032471 -0.100000
v 0.406628 4.167945 -0.100000
v 0.588109 4.226912 -0.100000
v 0.353418 4.296741 -0.100000
v 0.516491 4.415221 -0.100000
v 0.417874 4.171599 -0.100000
v 0.249054 4.389468 -0.100000
v 0.366725 4.551428 -0.100000
v 0.127721 4.457315 -0.100000
v 0.181754 4.623613 -0.100000
v -0.010320 4.471983 -0.100000
v -0.010320 4.677135 -0.100000
v -0.147009 4.453158 -0.100000
v -0.213238 4.656990 -0.100000
v -0.275180 4.397020 -0.100000
v -0.413268 4.587081 -0.100000
v -0.387301 4.306364 -0.100000
v -0.573675 4.441772 -0.100000
v -0.446818 4.174298 -0.100000
v -0.678624 4.249616 -0.100000
v -0.475959 4.032471 -0.100000
v -0.705977 4.032471 -0.100000
v 0.989680 3.321891 -0.100000
v 0.989680 2.656699 -0.100000
v -1.010320 3.321891 -0.100000
v -1.010320 2.656699 -0.100000
v 0.276264 3.321891 -0.100000
v -0.301890 3.321891 -0.100000
v -0.301890 2.656699 -0.100000
v 0.276264 2.656699 -0.100000
v -1.010320 2.658751 0.100000
v -1.010320 3.310083 0.100000
v 0.989680 2.648967 0.100000
v 0.989680 3.319519 0.100000
v -0.309994 3.313387 0.100000
v 0.277110 3.316157 0.100000
v 0.277204 2.652452 0.100000
v -0.305054 2.655301 0.100000
v -1.010320 0.905189 0.100000
v -1.010320 1.573131 0.100000
v 0.989680 0.905190 0.100000
v 0.989680 1.573132 0.100000
v -0.277426 1.573131 0.100000
v 0.259312 1.573131 0.100000
v 0.259312 0.905189 0.100000
v -0.277426 0.905189 0.100000
v 0.989680 1.572441 -0.100000
v 0.989680 0.905326 -0.100000
v -1.010320 1.572441 -0.100000
v -1.010320 0.905326 -0.100000
v 0.259646 1.572441 -0.100000
v -0.267590 1.572441 -0.100000
v -0.267590 0.905326 -0.100000
v 0.259646 0.905326 -0.100000
vn -0.0000 -1.0000 -0.0000
vn -0.0000 -0.0000 1.0000
vn -0.0000 1.0000 -0.0000
vn -0.0000 -0.0000 -1.0000
vn 1.0000 -0.0000 -0.0000
vn -1.0000 -0.0000 -0.0000
vn 0.9511 0.3090 -0.0000
vn 0.8090 0.5878 -0.0000
vn 0.5878 0.8090 -0.0000
vn 0.3090 0.9511 -0.0000
vn -0.3090 0.9511 -0.0000
vn -0.5878 0.8090 -0.0000
vn -0.8090 0.5878 -0.0000
vn -0.9511 0.3090 -0.0000
vn -0.9877 0.1564 -0.0000
vn 0.9877 0.1564 -0.0000
vt 0.375000 0.000000
vt 0.625000 0.000000
vt 0.625000 0.250000
vt 0.375000 0.250000
vt 0.375000 0.454851
vt 0.462541 0.455057
vt 0.535929 0.455230
vt 0.625000 0.455441
vt 0.625000 0.500000
vt 0.409873 0.500000
vt 0.375000 0.500000
vt 0.625000 0.750000
vt 0.375000 0.750000
vt 0.625000 0.794411
vt 0.535823 0.794411
vt 0.463554 0.794411
vt 0.375000 0.794411
vt 0.679553 0.000000
vt 0.721248 0.000000
vt 0.789014 0.000000
vt 0.830589 0.000000
vt 0.875000 0.000000
vt 0.875000 0.250000
vt 0.830441 0.250000
vt 0.788531 0.250000
vt 0.721291 0.250000
vt 0.679545 0.250000
vt 0.125000 0.000000
vt 0.169411 0.000000
vt 0.210986 0.000000
vt 0.278752 0.000000
vt 0.320447 0.000000
vt 0.320455 0.250000
vt 0.278709 0.250000
vt 0.210857 0.250000
vt 0.170149 0.250000
vt 0.125000 0.250000
vt 0.375000 0.312500
vt 0.387500 0.312500
vt 0.387500 0.688440
vt 0.375000 0.688440
vt 0.400000 0.312500
vt 0.400000 0.688440
vt 0.412500 0.312500
vt 0.412500 0.688440
vt 0.425000 0.312500
vt 0.425000 0.688440
vt 0.437500 0.312500
vt 0.437500 0.688440
vt 0.450000 0.312500
vt 0.450000 0.688440
vt 0.462500 0.312500
vt 0.462500 0.688440
vt 0.475000 0.312500
vt 0.475000 0.688440
vt 0.487500 0.312500
vt 0.487500 0.688440
vt 0.612500 0.312500
vt 0.625000 0.312500
vt 0.625000 0.688440
vt 0.612500 0.688440
vt 0.626409 0.064408
vt 0.648603 0.107966
vt 0.593505 0.123551
vt 0.582314 0.094265
vt 0.591842 0.029841
vt 0.558913 0.072922
vt 0.548284 0.007647
vt 0.540527 0.096977
vt 0.500000 0.150000
vt 0.521569 0.086410
vt 0.530012 0.061519
vt 0.500000 -0.000000
vt 0.500000 0.053300
vt 0.451716 0.007647
vt 0.468294 0.056523
vt 0.408159 0.029841
vt 0.478642 0.087032
vt 0.458615 0.095855
vt 0.437039 0.067627
vt 0.373591 0.064409
vt 0.411976 0.090399
vt 0.351397 0.107966
vt 0.395577 0.120463
vt 0.343750 0.156250
vt 0.391304 0.154348
vt 0.656250 0.156250
vt 0.597232 0.153889
vt 0.648603 0.892034
vt 0.626409 0.935591
vt 0.583516 0.902307
vt 0.593715 0.871891
vt 0.591841 0.970159
vt 0.560000 0.924166
vt 0.548284 0.992353
vt 0.530699 0.935955
vt 0.521188 0.905454
vt 0.520794 0.904189
vt 0.500000 0.837500
vt 0.541311 0.897171
vt 0.451716 0.992353
vt 0.408159 0.970159
vt 0.435572 0.930561
vt 0.456496 0.900339
vt 0.477985 0.908106
vt 0.468175 0.939568
vt 0.430558 0.862984
vt 0.428103 0.840376
vt 0.351397 0.892034
vt 0.343750 0.843750
vt 0.388335 0.841967
vt 0.392925 0.876794
vt 0.373591 0.935591
vt 0.394678 0.876151
vt 0.410572 0.906895
vt 0.438603 0.885143
vt 0.438781 0.885005
vt 0.500000 0.909976
vt 0.500000 1.000000
vt 0.500000 0.942029
vt 0.559862 0.883952
vt 0.567007 0.862090
vt 0.563315 0.840033
vt 0.561326 0.839953
vt 0.656250 0.843750
vt 0.593692 0.871883
vt 0.595129 0.841305
vt 0.565148 0.131572
vt 0.563235 0.152529
vt 0.556834 0.111518
vt 0.566905 0.131075
vt 0.500000 0.084073
vt 0.441097 0.110117
vt 0.431797 0.130708
vt 0.427244 0.152910
vt 0.375000 0.835986
vt 0.463554 0.835986
vt 0.535823 0.835986
vt 0.625000 0.835986
vt 0.625000 0.903752
vt 0.533746 0.903752
vt 0.467841 0.903752
vt 0.375000 0.903752
vt 0.375000 0.346291
vt 0.466612 0.346291
vt 0.533704 0.346291
vt 0.625000 0.346291
vt 0.625000 0.413531
vt 0.535941 0.413749
vt 0.463158 0.413927
vt 0.375000 0.414142
vt 0.625000 0.304545
vt 0.533704 0.304545
vt 0.466612 0.304545
vt 0.375000 0.304545
vt 0.375000 0.945447
vt 0.467841 0.945447
vt 0.533746 0.945447
vt 0.625000 0.945447
vt 0.625000 1.000000
vt 0.375000 1.000000
s 0
usemtl initialShadingGroup
f 1/1/1 2/2/1 4/3/1 3/4/1
s 1
f 93/5/2 96/6/2 97/7/2 95/8/2 6/9/2 33/10/2 5/11/2
s 0
f 5/11/3 33/10/3 6/9/3 8/12/3 7/13/3
s 1
f 7/13/4 8/12/4 84/14/4 88/15/4 89/16/4 86/17/4
s 0
f 2/2/5 109/18/5 108/19/5 85/20/5 84/21/5 8/22/5 6/23/5 95/24/5 94/25/5 103/26/5 102/27/5 4/3/5
f 7/28/6 86/29/6 87/30/6 110/31/6 111/32/6 1/1/6 3/4/6 100/33/6 101/34/6 92/35/6 93/36/6 5/37/6
s 1
f 9/38/7 10/39/8 21/40/8 20/41/7
f 10/39/8 11/42/9 22/43/9 21/40/8
f 11/42/9 12/44/10 23/45/10 22/43/9
f 12/44/10 13/46/3 24/47/3 23/45/10
f 13/46/3 14/48/11 25/49/11 24/47/3
f 14/48/11 15/50/12 26/51/12 25/49/11
f 15/50/12 16/52/13 27/53/13 26/51/12
f 16/52/13 17/54/14 28/55/14 27/53/13
f 17/54/14 18/56/15 29/57/15 28/55/14
f 19/58/16 9/59/7 20/60/7 30/61/16
f 10/62/4 9/63/4 64/64/4 66/65/4
f 11/66/4 10/62/4 66/65/4 69/67/4
f 12/68/4 11/66/4 69/67/4 68/69/4 31/70/4 70/71/4 71/72/4
f 13/73/4 12/68/4 71/72/4 73/74/4
f 14/75/4 13/73/4 73/74/4 75/76/4
f 15/77/4 14/75/4 75/76/4 74/78/4 31/70/4 76/79/4 77/80/4
f 16/81/4 15/77/4 77/80/4 79/82/4
f 17/83/4 16/81/4 79/82/4 81/84/4
f 18/85/4 17/83/4 81/84/4 83/86/4
f 9/63/4 19/87/4 62/88/4 64/64/4
f 20/89/2 21/90/2 53/91/2 55/92/2
f 21/90/2 22/93/2 51/94/2 53/91/2
f 22/93/2 23/95/2 48/96/2 49/97/2 50/98/2 32/99/2 52/100/2 51/94/2
f 25/101/2 26/102/2 42/103/2 43/104/2 32/99/2 45/105/2 44/106/2
f 35/107/2 37/108/2 32/99/2
f 28/109/2 29/110/2 36/111/2 34/112/2
f 27/113/2 28/109/2 34/112/2 41/114/2 38/115/2
f 39/116/2 35/107/2 40/117/2
f 40/117/2 35/107/2 32/99/2
f 43/104/2 40/117/2 32/99/2
f 26/102/2 27/113/2 38/115/2 42/103/2
f 47/118/2 45/105/2 32/99/2
f 49/97/2 47/118/2 32/99/2 50/98/2
f 23/95/2 24/119/2 46/120/2 48/96/2
f 24/119/2 25/101/2 44/106/2 46/120/2
f 54/121/2 52/100/2 32/99/2
f 57/122/2 54/121/2 32/99/2
f 59/123/2 57/122/2 32/99/2 60/124/2
f 30/125/2 20/89/2 55/92/2 56/126/2 58/127/2
f 63/128/4 61/129/4 31/70/4
f 65/130/4 63/128/4 31/70/4
s 0
f 63/128/4 64/64/4 67/131/4
s 1
f 68/69/4 65/130/4 31/70/4
f 72/132/4 70/71/4 31/70/4
f 74/78/4 72/132/4 31/70/4
f 78/133/4 76/79/4 31/70/4
f 80/134/4 78/133/4 31/70/4
f 82/135/4 80/134/4 31/70/4
f 87/136/4 90/137/4 91/138/4 85/139/4 108/140/4 112/141/4 113/142/4 110/143/4
f 86/17/4 89/16/4 90/137/4 87/136/4
f 91/138/4 88/15/4 84/14/4 85/139/4
f 101/144/2 104/145/2 105/146/2 103/147/2 94/148/2 98/149/2 99/150/2 92/151/2
f 97/7/2 98/149/2 94/148/2 95/8/2
f 92/151/2 99/150/2 96/6/2 93/5/2
f 3/4/2 4/3/2 102/152/2 106/153/2 107/154/2 100/155/2
f 105/146/2 106/153/2 102/152/2 103/147/2
f 100/155/2 107/154/2 104/145/2 101/144/2
f 111/156/4 114/157/4 115/158/4 109/159/4 2/160/4 1/161/4
f 110/143/4 113/142/4 114/157/4 111/156/4
f 115/158/4 112/141/4 108/140/4 109/159/4
